<svg width="20" height="20" viewBox="0 0 20 20" fill="none" xmlns="http://www.w3.org/2000/svg">
<path d="M0.24172 12.1862C-0.0607101 10.8364 -0.0887709 9.51042 0.157537 8.20841C0.403844 6.9064 0.86773 5.7179 1.5492 4.64291C2.23066 3.56792 3.10763 2.64128 4.18008 1.86299C5.25254 1.08469 6.4637 0.544333 7.81357 0.241903C9.16344 -0.0605268 10.4894 -0.088588 11.7914 0.157719C13.0934 0.404027 14.2819 0.867914 15.3569 1.54938C16.4319 2.23085 17.3585 3.10781 18.1368 4.18027C18.9151 5.25272 19.4555 6.46389 19.7579 7.81376C19.9947 8.87088 20.0643 9.9057 19.9667 10.9182C19.869 11.9307 19.633 12.8974 19.2585 13.8182L17.5022 12.7257C17.7541 12.0203 17.9114 11.2933 17.9743 10.5448C18.0372 9.79624 17.9812 9.03165 17.8063 8.251C17.3217 6.08796 16.1487 4.41646 14.2874 3.23652C12.426 2.05657 10.4139 1.70891 8.25082 2.19352C6.08778 2.67814 4.41628 3.85111 3.23633 5.71243C2.05639 7.57376 1.70872 9.58594 2.19334 11.749C2.67795 13.912 3.85092 15.5835 5.71225 16.7635C7.57357 17.9434 9.58576 18.2911 11.7488 17.8065C12.0415 17.7409 12.3306 17.659 12.6161 17.5609C12.9016 17.4628 13.1752 17.3502 13.4371 17.2233L15.3781 18.4537C14.8977 18.7492 14.392 19.0077 13.8609 19.2291C13.3298 19.4506 12.7715 19.6269 12.1861 19.7581C10.8362 20.0605 9.51024 20.0886 8.20823 19.8423C6.90622 19.596 5.71772 19.1321 4.64273 18.4506C3.56774 17.7691 2.6411 16.8922 1.8628 15.8197C1.08451 14.7473 0.544149 13.5361 0.24172 12.1862Z" fill="#3C3C46"/>
<path d="M0.24172 12.1862C-0.0607101 10.8364 -0.0887709 9.51042 0.157537 8.20841C0.403844 6.9064 0.86773 5.7179 1.5492 4.64291C2.23066 3.56792 3.10763 2.64128 4.18008 1.86299C5.25254 1.08469 6.4637 0.544333 7.81357 0.241903C9.16344 -0.0605268 10.4894 -0.088588 11.7914 0.157719C13.0934 0.404027 14.2819 0.867914 15.3569 1.54938C16.4319 2.23085 17.3585 3.10781 18.1368 4.18027C18.9151 5.25272 19.4555 6.46389 19.7579 7.81376C19.9947 8.87088 20.0643 9.9057 19.9667 10.9182C19.869 11.9307 19.633 12.8974 19.2585 13.8182L17.5022 12.7257C17.7541 12.0203 17.9114 11.2933 17.9743 10.5448C18.0372 9.79624 17.9812 9.03165 17.8063 8.251C17.3217 6.08796 16.1487 4.41646 14.2874 3.23652C12.426 2.05657 10.4139 1.70891 8.25082 2.19352C6.08778 2.67814 4.41628 3.85111 3.23633 5.71243C2.05639 7.57376 1.70872 9.58594 2.19334 11.749C2.67795 13.912 3.85092 15.5835 5.71225 16.7635C7.57357 17.9434 9.58576 18.2911 11.7488 17.8065C12.0415 17.7409 12.3306 17.659 12.6161 17.5609C12.9016 17.4628 13.1752 17.3502 13.4371 17.2233L15.3781 18.4537C14.8977 18.7492 14.392 19.0077 13.8609 19.2291C13.3298 19.4506 12.7715 19.6269 12.1861 19.7581C10.8362 20.0605 9.51024 20.0886 8.20823 19.8423C6.90622 19.596 5.71772 19.1321 4.64273 18.4506C3.56774 17.7691 2.6411 16.8922 1.8628 15.8197C1.08451 14.7473 0.544149 13.5361 0.24172 12.1862Z" fill="#3C3C46"/>
<path d="M17.9999 10C17.9999 14.4183 14.4182 18 9.99989 18C5.58161 18 1.99989 14.4183 1.99989 10C1.99989 5.58172 5.58161 2 9.99989 2C14.4182 2 17.9999 5.58172 17.9999 10Z" fill="#8216A0"/>
<path d="M9.99989 20C8.61655 20 7.31655 19.7375 6.09989 19.2125C4.88322 18.6875 3.82489 17.975 2.92489 17.075C2.02489 16.175 1.31239 15.1167 0.787387 13.9C0.262387 12.6833 -0.00011252 11.3833 -0.00011252 10C-0.00011252 8.61667 0.262387 7.31667 0.787387 6.1C1.31239 4.88333 2.02489 3.825 2.92489 2.925C3.82489 2.025 4.88322 1.3125 6.09989 0.7875C7.31655 0.2625 8.61655 -2.61702e-07 9.99989 -2.61702e-07C11.0832 -2.61702e-07 12.1082 0.158333 13.0749 0.475C14.0416 0.791666 14.9332 1.23333 15.7499 1.8L14.2999 3.275C13.6666 2.875 12.9916 2.5625 12.2749 2.3375C11.5582 2.1125 10.7999 2 9.99989 2C7.78322 2 5.89572 2.77917 4.33739 4.3375C2.77905 5.89583 1.99989 7.78333 1.99989 10C1.99989 12.2167 2.77905 14.1042 4.33739 15.6625C5.89572 17.2208 7.78322 18 9.99989 18C12.2166 18 14.1041 17.2208 15.6624 15.6625C17.2207 14.1042 17.9999 12.2167 17.9999 10C17.9999 9.7 17.9832 9.4 17.9499 9.1C17.9166 8.8 17.8666 8.50833 17.7999 8.225L19.4249 6.6C19.6082 7.13333 19.7499 7.68333 19.8499 8.25C19.9499 8.81667 19.9999 9.4 19.9999 10C19.9999 11.3833 19.7374 12.6833 19.2124 13.9C18.6874 15.1167 17.9749 16.175 17.0749 17.075C16.1749 17.975 15.1166 18.6875 13.8999 19.2125C12.6832 19.7375 11.3832 20 9.99989 20Z" fill="#3C3C46"/>
<path d="M9.99989 20C8.61655 20 7.31655 19.7375 6.09989 19.2125C4.88322 18.6875 3.82489 17.975 2.92489 17.075C2.02489 16.175 1.31239 15.1167 0.787387 13.9C0.262387 12.6833 -0.00011252 11.3833 -0.00011252 10C-0.00011252 8.61667 0.262387 7.31667 0.787387 6.1C1.31239 4.88333 2.02489 3.825 2.92489 2.925C3.82489 2.025 4.88322 1.3125 6.09989 0.7875C7.31655 0.2625 8.61655 -2.61702e-07 9.99989 -2.61702e-07C11.0832 -2.61702e-07 12.1082 0.158333 13.0749 0.475C14.0416 0.791666 14.9332 1.23333 15.7499 1.8L14.2999 3.275C13.6666 2.875 12.9916 2.5625 12.2749 2.3375C11.5582 2.1125 10.7999 2 9.99989 2C7.78322 2 5.89572 2.77917 4.33739 4.3375C2.77905 5.89583 1.99989 7.78333 1.99989 10C1.99989 12.2167 2.77905 14.1042 4.33739 15.6625C5.89572 17.2208 7.78322 18 9.99989 18C12.2166 18 14.1041 17.2208 15.6624 15.6625C17.2207 14.1042 17.9999 12.2167 17.9999 10C17.9999 9.7 17.9832 9.4 17.9499 9.1C17.9166 8.8 17.8666 8.50833 17.7999 8.225L19.4249 6.6C19.6082 7.13333 19.7499 7.68333 19.8499 8.25C19.9499 8.81667 19.9999 9.4 19.9999 10C19.9999 11.3833 19.7374 12.6833 19.2124 13.9C18.6874 15.1167 17.9749 16.175 17.0749 17.075C16.1749 17.975 15.1166 18.6875 13.8999 19.2125C12.6832 19.7375 11.3832 20 9.99989 20Z" fill="#3C3C46"/>
<path d="M4.34999 10.35L8.59999 14.6L20 3.17502L18.6 1.77502L8.59999 11.8L5.74999 8.95002L4.34999 10.35Z" fill="white"/>
</svg>
