<svg width="21" height="21" viewBox="0 0 21 21" fill="none" xmlns="http://www.w3.org/2000/svg">
<circle cx="11" cy="11.0002" r="9" fill="#8216A0"/>
<path d="M20.9443 10.9443C20.9443 12.3277 20.6818 13.6277 20.1568 14.8443C19.6318 16.061 18.9193 17.1193 18.0193 18.0193C17.1193 18.9193 16.061 19.6318 14.8443 20.1568C13.6277 20.6818 12.3277 20.9443 10.9443 20.9443C9.561 20.9443 8.261 20.6818 7.04434 20.1568C5.82767 19.6318 4.76934 18.9193 3.86934 18.0193C2.96934 17.1193 2.25684 16.061 1.73184 14.8443C1.20684 13.6277 0.944336 12.3277 0.944336 10.9443C0.944336 9.861 1.10267 8.836 1.41934 7.86934C1.736 6.90267 2.17767 6.011 2.74434 5.19434L4.21934 6.64434C3.81934 7.27767 3.50684 7.95267 3.28184 8.66934C3.05684 9.386 2.94434 10.1443 2.94434 10.9443C2.94434 13.161 3.7235 15.0485 5.28184 16.6068C6.84017 18.1652 8.72767 18.9443 10.9443 18.9443C13.161 18.9443 15.0485 18.1652 16.6068 16.6068C18.1652 15.0485 18.9443 13.161 18.9443 10.9443C18.9443 8.72767 18.1652 6.84017 16.6068 5.28184C15.0485 3.7235 13.161 2.94434 10.9443 2.94434C10.6443 2.94434 10.3443 2.961 10.0443 2.99434C9.74434 3.02767 9.45267 3.07767 9.16934 3.14433L7.54434 1.51933C8.07767 1.336 8.62767 1.19434 9.19434 1.09434C9.761 0.994336 10.3443 0.944336 10.9443 0.944336C12.3277 0.944336 13.6277 1.20684 14.8443 1.73184C16.061 2.25684 17.1193 2.96934 18.0193 3.86934C18.9193 4.76934 19.6318 5.82767 20.1568 7.04434C20.6818 8.261 20.9443 9.561 20.9443 10.9443Z" fill="#3C3C46"/>
<path d="M20.9443 10.9443C20.9443 12.3277 20.6818 13.6277 20.1568 14.8443C19.6318 16.061 18.9193 17.1193 18.0193 18.0193C17.1193 18.9193 16.061 19.6318 14.8443 20.1568C13.6277 20.6818 12.3277 20.9443 10.9443 20.9443C9.561 20.9443 8.261 20.6818 7.04434 20.1568C5.82767 19.6318 4.76934 18.9193 3.86934 18.0193C2.96934 17.1193 2.25684 16.061 1.73184 14.8443C1.20684 13.6277 0.944336 12.3277 0.944336 10.9443C0.944336 9.861 1.10267 8.836 1.41934 7.86934C1.736 6.90267 2.17767 6.011 2.74434 5.19434L4.21934 6.64434C3.81934 7.27767 3.50684 7.95267 3.28184 8.66934C3.05684 9.386 2.94434 10.1443 2.94434 10.9443C2.94434 13.161 3.7235 15.0485 5.28184 16.6068C6.84017 18.1652 8.72767 18.9443 10.9443 18.9443C13.161 18.9443 15.0485 18.1652 16.6068 16.6068C18.1652 15.0485 18.9443 13.161 18.9443 10.9443C18.9443 8.72767 18.1652 6.84017 16.6068 5.28184C15.0485 3.7235 13.161 2.94434 10.9443 2.94434C10.6443 2.94434 10.3443 2.961 10.0443 2.99434C9.74434 3.02767 9.45267 3.07767 9.16934 3.14433L7.54434 1.51933C8.07767 1.336 8.62767 1.19434 9.19434 1.09434C9.761 0.994336 10.3443 0.944336 10.9443 0.944336C12.3277 0.944336 13.6277 1.20684 14.8443 1.73184C16.061 2.25684 17.1193 2.96934 18.0193 3.86934C18.9193 4.76934 19.6318 5.82767 20.1568 7.04434C20.6818 8.261 20.9443 9.561 20.9443 10.9443Z" fill="#3C3C46"/>
<path d="M10.9497 20.9443C9.56637 20.9443 8.26637 20.6818 7.04971 20.1568C5.83304 19.6318 4.77471 18.9193 3.87471 18.0193C2.97471 17.1193 2.26221 16.0609 1.73721 14.8443C1.21221 13.6276 0.949707 12.3276 0.949707 10.9443C0.949707 9.56094 1.21221 8.26094 1.73721 7.04427C2.26221 5.82761 2.97471 4.76927 3.87471 3.86927C4.77471 2.96927 5.83304 2.25677 7.04971 1.73177C8.26637 1.20677 9.56637 0.944275 10.9497 0.944275C12.033 0.944275 13.058 1.10261 14.0247 1.41927C14.9914 1.73594 15.883 2.17761 16.6997 2.74427L15.2497 4.21927C14.6164 3.81927 13.9414 3.50678 13.2247 3.28177C12.508 3.05677 11.7497 2.94427 10.9497 2.94427C8.73304 2.94427 6.84554 3.72344 5.28721 5.28177C3.72887 6.84011 2.94971 8.72761 2.94971 10.9443C2.94971 13.1609 3.72887 15.0484 5.28721 16.6068C6.84554 18.1651 8.73304 18.9443 10.9497 18.9443C13.1664 18.9443 15.0539 18.1651 16.6122 16.6068C18.1705 15.0484 18.9497 13.1609 18.9497 10.9443C18.9497 10.6443 18.933 10.3443 18.8997 10.0443C18.8664 9.74428 18.8164 9.45261 18.7497 9.16928L20.3747 7.54427C20.558 8.07761 20.6997 8.62761 20.7997 9.19427C20.8997 9.76094 20.9497 10.3443 20.9497 10.9443C20.9497 12.3276 20.6872 13.6276 20.1622 14.8443C19.6372 16.0609 18.9247 17.1193 18.0247 18.0193C17.1247 18.9193 16.0664 19.6318 14.8497 20.1568C13.633 20.6818 12.333 20.9443 10.9497 20.9443Z" fill="#3C3C46"/>
<path d="M10.9497 20.9443C9.56637 20.9443 8.26637 20.6818 7.04971 20.1568C5.83304 19.6318 4.77471 18.9193 3.87471 18.0193C2.97471 17.1193 2.26221 16.0609 1.73721 14.8443C1.21221 13.6276 0.949707 12.3276 0.949707 10.9443C0.949707 9.56094 1.21221 8.26094 1.73721 7.04427C2.26221 5.82761 2.97471 4.76927 3.87471 3.86927C4.77471 2.96927 5.83304 2.25677 7.04971 1.73177C8.26637 1.20677 9.56637 0.944275 10.9497 0.944275C12.033 0.944275 13.058 1.10261 14.0247 1.41927C14.9914 1.73594 15.883 2.17761 16.6997 2.74427L15.2497 4.21927C14.6164 3.81927 13.9414 3.50678 13.2247 3.28177C12.508 3.05677 11.7497 2.94427 10.9497 2.94427C8.73304 2.94427 6.84554 3.72344 5.28721 5.28177C3.72887 6.84011 2.94971 8.72761 2.94971 10.9443C2.94971 13.1609 3.72887 15.0484 5.28721 16.6068C6.84554 18.1651 8.73304 18.9443 10.9497 18.9443C13.1664 18.9443 15.0539 18.1651 16.6122 16.6068C18.1705 15.0484 18.9497 13.1609 18.9497 10.9443C18.9497 10.6443 18.933 10.3443 18.8997 10.0443C18.8664 9.74428 18.8164 9.45261 18.7497 9.16928L20.3747 7.54427C20.558 8.07761 20.6997 8.62761 20.7997 9.19427C20.8997 9.76094 20.9497 10.3443 20.9497 10.9443C20.9497 12.3276 20.6872 13.6276 20.1622 14.8443C19.6372 16.0609 18.9247 17.1193 18.0247 18.0193C17.1247 18.9193 16.0664 19.6318 14.8497 20.1568C13.633 20.6818 12.333 20.9443 10.9497 20.9443Z" fill="#3C3C46"/>
<path d="M5.2998 11.2943L9.5498 15.5443L20.9498 4.1193L19.5498 2.7193L14.5498 7.7318L9.5498 12.7443L6.6998 9.8943L5.2998 11.2943Z" fill="white"/>
</svg>
