<?xml version="1.0" encoding="UTF-8"?>
<svg id="Capa_1" data-name="Capa 1" xmlns="http://www.w3.org/2000/svg" viewBox="0 0 747.71 160.55">
  <defs>
    <style>
      .cls-1 {
        stroke: #8216a0;
        stroke-miterlimit: 10;
        stroke-width: 17px;
      }

      .cls-1, .cls-2 {
        fill: #8216a0;
      }
    </style>
  </defs>
  <path class="cls-2" d="M0,136.98L23.38,1.87l42.96.09c16.95.06,29.6,3.28,37.95,9.65,8.35,6.37,12.16,15.31,11.41,26.82-.93,14.23-8.72,24.31-23.38,30.25,5.26,1.86,9.36,5.21,12.3,10.07,2.94,4.86,4.19,10.69,3.76,17.49-.87,13.05-6.02,23.11-15.45,30.16-9.43,7.05-22.35,10.58-38.74,10.58H0ZM41.76,79.54l-5.66,32.29,19.02.09c5.94,0,10.89-1.46,14.85-4.39,3.96-2.93,6.31-6.83,7.05-11.71,1.73-10.3-2.23-15.7-11.88-16.19l-23.38-.09ZM45.38,58.2l14.94.09c13.79-.31,21.53-5.61,23.2-15.91,1.48-10.18-3.77-15.3-15.78-15.36l-16.89-.09-5.47,31.27Z"/>
  <path class="cls-2" d="M164.67,138.84c-14.04-.31-25.3-4.95-33.78-13.92-8.48-8.97-13.27-20.97-14.38-36-.62-7.42-.03-16.16,1.76-26.22,1.79-10.05,4.98-19.32,9.56-27.79,4.58-8.47,10.3-15.53,17.17-21.16C156.51,4.28,169.75-.29,184.72.01c9.22.19,17.27,2.31,24.17,6.36,6.9,4.05,12.42,9.88,16.56,17.49,4.14,7.61,6.56,16.27,7.24,25.98.49,6.87.08,14.68-1.25,23.43-1.33,8.75-3.77,17.11-7.33,25.05-3.56,7.95-8.15,14.96-13.78,21.02-5.63,6.06-12.27,10.87-19.9,14.43-7.64,3.56-16.23,5.24-25.75,5.06ZM200.86,49.57c-.62-15.46-6.62-23.51-18-24.13-8.79-.43-16.05,3.05-21.81,10.44-5.75,7.39-9.56,18.3-11.41,32.71-1.18,8.91-1.61,15.81-1.3,20.69.62,15.71,6.68,23.79,18.19,24.22,7.55.37,14.04-2.33,19.49-8.12,5.44-5.78,9.37-14.2,11.79-25.24s3.43-21.23,3.06-30.58Z"/>
  <path class="cls-2" d="M284.56,138.84c-14.04-.31-25.3-4.95-33.78-13.92-8.48-8.97-13.27-20.97-14.38-36-.62-7.42-.03-16.16,1.76-26.22,1.79-10.05,4.98-19.32,9.56-27.79,4.58-8.47,10.3-15.53,17.17-21.16C276.39,4.28,289.63-.29,304.6.01c9.22.19,17.27,2.31,24.17,6.36,6.9,4.05,12.42,9.88,16.56,17.49,4.14,7.61,6.56,16.27,7.24,25.98.49,6.87.08,14.68-1.25,23.43-1.33,8.75-3.77,17.11-7.33,25.05-3.56,7.95-8.15,14.96-13.78,21.02-5.63,6.06-12.27,10.87-19.9,14.43-7.64,3.56-16.23,5.24-25.75,5.06ZM320.75,49.57c-.62-15.46-6.62-23.51-18-24.13-8.79-.43-16.05,3.05-21.81,10.44-5.75,7.39-9.56,18.3-11.41,32.71-1.18,8.91-1.61,15.81-1.3,20.69.62,15.71,6.68,23.79,18.19,24.22,7.55.37,14.04-2.33,19.49-8.12,5.44-5.78,9.37-14.2,11.79-25.24s3.43-21.23,3.06-30.58Z"/>
  <path class="cls-2" d="M399.15,87.06l-16.52,15.5-6.03,34.43h-27.94L368.25,1.87h31.83l-10.11,57.81,13.18-16.05L438.22,1.87h41.2l-56.05,61.15,31.09,73.96h-36.28l-19.02-49.92Z"/>
  <path class="cls-2" d="M496.85,136.98h-31.74L488.59,1.87h31.64l-23.38,135.11Z"/>
  <path class="cls-2" d="M600.65,83.16h-50.94l-9.37,53.82h-31.74L531.98,1.87h87.88l-4.36,25.15h-56.05l-5.38,31.09h50.94l-4.36,25.06Z"/>
  <path class="cls-2" d="M677.83,60.33L711.98,1.87h35.73l-58.28,88.06-8.07,47.05h-32.29l8.72-50.11L630.78,1.96l33.04-.09,14.01,58.46Z"/>
  <line class="cls-1" y1="152.05" x2="738.73" y2="152.05"/>
</svg>